<mxfile host="app.diagrams.net" modified="2024-01-22T16:10:07.051Z" agent="Mozilla/5.0 (Windows NT 10.0; Win64; x64) AppleWebKit/537.36 (KHTML, like Gecko) Chrome/120.0.0.0 Safari/537.36" etag="vlp-6QgjQmTE6p1BbO65" version="22.1.21" type="github">
  <diagram name="Page-1" id="DTzQJqu1AdwLOTB4zrQx">
    <mxGraphModel dx="2074" dy="1144" grid="1" gridSize="10" guides="1" tooltips="1" connect="1" arrows="1" fold="1" page="1" pageScale="1" pageWidth="850" pageHeight="1100" background="#ffffff" math="0" shadow="0">
      <root>
        <mxCell id="0" />
        <mxCell id="1" parent="0" />
        <mxCell id="2" value="HR Manager" style="shape=umlLifeline;perimeter=lifelinePerimeter;whiteSpace=wrap;container=1;dropTarget=0;collapsible=0;recursiveResize=0;outlineConnect=0;portConstraint=eastwest;newEdgeStyle={&quot;edgeStyle&quot;:&quot;elbowEdgeStyle&quot;,&quot;elbow&quot;:&quot;vertical&quot;,&quot;curved&quot;:0,&quot;rounded&quot;:0};size=65;" parent="1" vertex="1">
          <mxGeometry width="150" height="628" as="geometry" />
        </mxCell>
        <mxCell id="3" value="Employee" style="shape=umlLifeline;perimeter=lifelinePerimeter;whiteSpace=wrap;container=1;dropTarget=0;collapsible=0;recursiveResize=0;outlineConnect=0;portConstraint=eastwest;newEdgeStyle={&quot;edgeStyle&quot;:&quot;elbowEdgeStyle&quot;,&quot;elbow&quot;:&quot;vertical&quot;,&quot;curved&quot;:0,&quot;rounded&quot;:0};size=65;" parent="1" vertex="1">
          <mxGeometry x="290" width="150" height="628" as="geometry" />
        </mxCell>
        <mxCell id="4" value="System" style="shape=umlLifeline;perimeter=lifelinePerimeter;whiteSpace=wrap;container=1;dropTarget=0;collapsible=0;recursiveResize=0;outlineConnect=0;portConstraint=eastwest;newEdgeStyle={&quot;edgeStyle&quot;:&quot;elbowEdgeStyle&quot;,&quot;elbow&quot;:&quot;vertical&quot;,&quot;curved&quot;:0,&quot;rounded&quot;:0};size=65;" parent="1" vertex="1">
          <mxGeometry x="603" width="150" height="628" as="geometry" />
        </mxCell>
        <mxCell id="CziS2gTTDBT1kwylu99a-13" value="" style="endArrow=classic;html=1;rounded=0;" edge="1" parent="1">
          <mxGeometry width="50" height="50" relative="1" as="geometry">
            <mxPoint x="364.5" y="120" as="sourcePoint" />
            <mxPoint x="74.5" y="120" as="targetPoint" />
          </mxGeometry>
        </mxCell>
        <mxCell id="CziS2gTTDBT1kwylu99a-14" value="Submit leave request" style="edgeLabel;html=1;align=center;verticalAlign=middle;resizable=0;points=[];" vertex="1" connectable="0" parent="CziS2gTTDBT1kwylu99a-13">
          <mxGeometry x="-0.0655" y="-1" relative="1" as="geometry">
            <mxPoint x="-8" y="-9" as="offset" />
          </mxGeometry>
        </mxCell>
        <mxCell id="CziS2gTTDBT1kwylu99a-15" value="" style="endArrow=classic;html=1;rounded=0;" edge="1" parent="1">
          <mxGeometry width="50" height="50" relative="1" as="geometry">
            <mxPoint x="74.5" y="200" as="sourcePoint" />
            <mxPoint x="677.5" y="200" as="targetPoint" />
          </mxGeometry>
        </mxCell>
        <mxCell id="CziS2gTTDBT1kwylu99a-16" value="Login" style="edgeLabel;html=1;align=center;verticalAlign=middle;resizable=0;points=[];" vertex="1" connectable="0" parent="CziS2gTTDBT1kwylu99a-15">
          <mxGeometry x="-0.0655" y="-1" relative="1" as="geometry">
            <mxPoint x="-8" y="-9" as="offset" />
          </mxGeometry>
        </mxCell>
        <mxCell id="CziS2gTTDBT1kwylu99a-18" value="" style="endArrow=classic;html=1;rounded=0;" edge="1" parent="1">
          <mxGeometry width="50" height="50" relative="1" as="geometry">
            <mxPoint x="74.5" y="240" as="sourcePoint" />
            <mxPoint x="677.5" y="240" as="targetPoint" />
          </mxGeometry>
        </mxCell>
        <mxCell id="CziS2gTTDBT1kwylu99a-19" value="Check leave balance" style="edgeLabel;html=1;align=center;verticalAlign=middle;resizable=0;points=[];" vertex="1" connectable="0" parent="CziS2gTTDBT1kwylu99a-18">
          <mxGeometry x="-0.0655" y="-1" relative="1" as="geometry">
            <mxPoint x="-8" y="-9" as="offset" />
          </mxGeometry>
        </mxCell>
        <mxCell id="CziS2gTTDBT1kwylu99a-20" value="Review leave request" style="verticalAlign=bottom;endArrow=block;edgeStyle=elbowEdgeStyle;elbow=vertical;curved=0;rounded=0;endArrow=none;" edge="1" parent="1">
          <mxGeometry relative="1" as="geometry">
            <Array as="points">
              <mxPoint x="286" y="160" />
            </Array>
            <mxPoint x="677.5" y="160" as="sourcePoint" />
            <mxPoint x="74.5" y="160" as="targetPoint" />
          </mxGeometry>
        </mxCell>
        <mxCell id="CziS2gTTDBT1kwylu99a-22" value="" style="endArrow=classic;html=1;rounded=0;" edge="1" parent="1" source="2" target="3">
          <mxGeometry width="50" height="50" relative="1" as="geometry">
            <mxPoint x="90" y="320" as="sourcePoint" />
            <mxPoint x="693" y="320" as="targetPoint" />
            <Array as="points">
              <mxPoint x="300" y="320" />
            </Array>
          </mxGeometry>
        </mxCell>
        <mxCell id="CziS2gTTDBT1kwylu99a-23" value="Notify leave request approved" style="edgeLabel;html=1;align=center;verticalAlign=middle;resizable=0;points=[];" vertex="1" connectable="0" parent="CziS2gTTDBT1kwylu99a-22">
          <mxGeometry x="-0.0655" y="-1" relative="1" as="geometry">
            <mxPoint x="-8" y="-9" as="offset" />
          </mxGeometry>
        </mxCell>
        <mxCell id="CziS2gTTDBT1kwylu99a-24" value="" style="endArrow=classic;html=1;rounded=0;" edge="1" parent="1">
          <mxGeometry width="50" height="50" relative="1" as="geometry">
            <mxPoint x="74.5" y="360" as="sourcePoint" />
            <mxPoint x="677.5" y="360" as="targetPoint" />
          </mxGeometry>
        </mxCell>
        <mxCell id="CziS2gTTDBT1kwylu99a-25" value="Update the leave balance&amp;nbsp;" style="edgeLabel;html=1;align=center;verticalAlign=middle;resizable=0;points=[];" vertex="1" connectable="0" parent="CziS2gTTDBT1kwylu99a-24">
          <mxGeometry x="-0.0655" y="-1" relative="1" as="geometry">
            <mxPoint x="-8" y="-9" as="offset" />
          </mxGeometry>
        </mxCell>
        <mxCell id="CziS2gTTDBT1kwylu99a-26" value="" style="endArrow=none;dashed=1;html=1;rounded=0;" edge="1" parent="1">
          <mxGeometry width="50" height="50" relative="1" as="geometry">
            <mxPoint x="74.5" y="280" as="sourcePoint" />
            <mxPoint x="677.5" y="280" as="targetPoint" />
          </mxGeometry>
        </mxCell>
        <mxCell id="CziS2gTTDBT1kwylu99a-27" value="Sufficient leave balance" style="text;html=1;align=center;verticalAlign=middle;resizable=0;points=[];autosize=1;strokeColor=none;fillColor=none;" vertex="1" parent="1">
          <mxGeometry x="275" y="258" width="150" height="30" as="geometry" />
        </mxCell>
        <mxCell id="CziS2gTTDBT1kwylu99a-30" value="" style="endArrow=classic;html=1;rounded=0;" edge="1" parent="1">
          <mxGeometry width="50" height="50" relative="1" as="geometry">
            <mxPoint x="74.5" y="480" as="sourcePoint" />
            <mxPoint x="364.5" y="480" as="targetPoint" />
            <Array as="points">
              <mxPoint x="120" y="480" />
              <mxPoint x="305" y="480" />
            </Array>
          </mxGeometry>
        </mxCell>
        <mxCell id="CziS2gTTDBT1kwylu99a-31" value="Notify leave request denied" style="edgeLabel;html=1;align=center;verticalAlign=middle;resizable=0;points=[];" vertex="1" connectable="0" parent="CziS2gTTDBT1kwylu99a-30">
          <mxGeometry x="-0.0655" y="-1" relative="1" as="geometry">
            <mxPoint x="-8" y="-9" as="offset" />
          </mxGeometry>
        </mxCell>
        <mxCell id="CziS2gTTDBT1kwylu99a-32" value="" style="endArrow=classic;html=1;rounded=0;" edge="1" parent="1">
          <mxGeometry width="50" height="50" relative="1" as="geometry">
            <mxPoint x="74.5" y="560" as="sourcePoint" />
            <mxPoint x="677.5" y="560" as="targetPoint" />
          </mxGeometry>
        </mxCell>
        <mxCell id="CziS2gTTDBT1kwylu99a-33" value="Logout" style="edgeLabel;html=1;align=center;verticalAlign=middle;resizable=0;points=[];" vertex="1" connectable="0" parent="CziS2gTTDBT1kwylu99a-32">
          <mxGeometry x="-0.0655" y="-1" relative="1" as="geometry">
            <mxPoint x="-8" y="-9" as="offset" />
          </mxGeometry>
        </mxCell>
        <mxCell id="CziS2gTTDBT1kwylu99a-34" value="" style="endArrow=classic;html=1;rounded=0;" edge="1" parent="1">
          <mxGeometry width="50" height="50" relative="1" as="geometry">
            <mxPoint x="74.5" y="400" as="sourcePoint" />
            <mxPoint x="677.5" y="400" as="targetPoint" />
          </mxGeometry>
        </mxCell>
        <mxCell id="CziS2gTTDBT1kwylu99a-35" value="Update the leave request status&amp;nbsp;" style="edgeLabel;html=1;align=center;verticalAlign=middle;resizable=0;points=[];" vertex="1" connectable="0" parent="CziS2gTTDBT1kwylu99a-34">
          <mxGeometry x="-0.0655" y="-1" relative="1" as="geometry">
            <mxPoint x="-8" y="-9" as="offset" />
          </mxGeometry>
        </mxCell>
        <mxCell id="CziS2gTTDBT1kwylu99a-38" value="" style="endArrow=none;dashed=1;html=1;rounded=0;" edge="1" parent="1" source="2" target="4">
          <mxGeometry width="50" height="50" relative="1" as="geometry">
            <mxPoint x="80" y="440" as="sourcePoint" />
            <mxPoint x="683" y="440" as="targetPoint" />
            <Array as="points">
              <mxPoint x="480" y="440" />
            </Array>
          </mxGeometry>
        </mxCell>
        <mxCell id="CziS2gTTDBT1kwylu99a-29" value="Insufficient leave balance" style="text;html=1;align=center;verticalAlign=middle;resizable=0;points=[];autosize=1;strokeColor=none;fillColor=none;rotation=0;" vertex="1" parent="1">
          <mxGeometry x="260" y="420" width="160" height="30" as="geometry" />
        </mxCell>
        <mxCell id="CziS2gTTDBT1kwylu99a-39" value="" style="endArrow=classic;html=1;rounded=0;" edge="1" parent="1">
          <mxGeometry width="50" height="50" relative="1" as="geometry">
            <mxPoint x="74.5" y="520" as="sourcePoint" />
            <mxPoint x="677.5" y="520" as="targetPoint" />
          </mxGeometry>
        </mxCell>
        <mxCell id="CziS2gTTDBT1kwylu99a-40" value="Update the leave request status&amp;nbsp;" style="edgeLabel;html=1;align=center;verticalAlign=middle;resizable=0;points=[];" vertex="1" connectable="0" parent="CziS2gTTDBT1kwylu99a-39">
          <mxGeometry x="-0.0655" y="-1" relative="1" as="geometry">
            <mxPoint x="-8" y="-9" as="offset" />
          </mxGeometry>
        </mxCell>
      </root>
    </mxGraphModel>
  </diagram>
</mxfile>
